<svg xmlns="http://www.w3.org/2000/svg" viewBox="2963.934 995.007 50.94 51.719"><path data-name="Union 11" d="M3001.472 1046.726h-35.038a2.505 2.505 0 0 1-2.5-2.5v-13.35a2.506 2.506 0 0 1 2.5-2.5h1.668v-1.669a3.34 3.34 0 0 1 3.337-3.336h4.17v-10.847a5.01 5.01 0 0 1 5.005-5h5.839v-3.341h-19.186v-5h17.517v-1.676a2.506 2.506 0 0 1 2.5-2.5h5a2.506 2.506 0 0 1 2.5 2.5v6.676h-1.668v3.337h3.607l-.326-5.005h18.463l-2.526 38.731a3.3 3.3 0 0 1 .8 2.143 3.34 3.34 0 0 1-3.336 3.337zm-1.669-3.337a1.671 1.671 0 0 0 1.669 1.669h8.342a1.67 1.67 0 0 0 1.668-1.669 1.67 1.67 0 0 0-1.668-1.668h-8.342a1.67 1.67 0 0 0-1.669 1.667zm-4.17.835a2.447 2.447 0 0 1-.155.834h3.121a3.306 3.306 0 0 1-.464-1.669 3.3 3.3 0 0 1 .8-2.143l-.568-8.7h-2.736zm-30.03 0a.836.836 0 0 0 .834.834h26.694a.836.836 0 0 0 .834-.834v-.835h-28.362zm0-2.5h28.362v-8.345h-28.362zm44.211-1.668a3.3 3.3 0 0 1 .932.149l.716-10.993h-11.638l.717 10.993a3.293 3.293 0 0 1 .932-.149zm-44.211-9.176v.827h28.362v-.834a.836.836 0 0 0-.834-.834h-26.697a.836.836 0 0 0-.831.837zm11.678-7.508h10.845a3.34 3.34 0 0 1 3.336 3.336v1.668h1.669a2.506 2.506 0 0 1 2.5 2.5h2.628l-.925-14.181h-20.055zm-7.508 3.336v1.668h20.02v-1.669a1.67 1.67 0 0 0-1.668-1.668h-16.683a1.67 1.67 0 0 0-1.669 1.668zm29.942.834h11.855l.925-14.181h-13.7zm-22.435-15.015v2.5h19.945l-.381-5.839h-16.227a3.34 3.34 0 0 0-3.337 3.336zm21.4-.834h13.924l.272-4.17h-14.468zm-10.556-4.17h3.336v-3.34h-3.336zm10.175-1.669h14.685l.109-1.668h-14.9zm-29.365-3.339h24.192v-1.669h-24.192zm17.518-5.005v1.668h6.673v-1.671a.836.836 0 0 0-.835-.834h-5a.836.836 0 0 0-.833.834zm-10.845 40.875v-1.669h8.342v1.668zm33.367-15.015v-1.669h1.668v1.668zm-8.342 0v-1.669h6.673v1.668zm0-3.337v-1.669h10.01v1.668zm-36.7-8.342a3.351 3.351 0 0 1 .667-2l2.669-3.56 2.67 3.56a3.356 3.356 0 0 1 .667 2 3.341 3.341 0 0 1-3.337 3.337 3.34 3.34 0 0 1-3.334-3.338zm2-1a1.68 1.68 0 0 0-.333 1 1.67 1.67 0 0 0 1.668 1.668 1.669 1.669 0 0 0 1.667-1.669 1.671 1.671 0 0 0-.333-1l-1.335-1.78z" fill="#fff"/></svg>