<svg xmlns="http://www.w3.org/2000/svg" viewBox="2123 998.392 42.966 49.217"><path data-name="Path 66" d="M2164.405 1016.275c-2.322-5.774-7.465-9.129-15.7-7.59-1.013.189-1.967.529-2.887.746-.037-3.175-.826-2.333.922-1.975 3.874.792 7.448-2.9 9.937-5.418l-1.5-.961c-4.795-3.075-10.104-4.286-12.017.631a9.635 9.635 0 0 0-2.478-2.035l-1.442 2.5c2.587 1.493 3.636 4.252 3.691 7.2-.879-.223-1.736-.518-2.665-.691-8.154-1.524-13.345 1.748-15.695 7.59-6.565 16.325 9.115 31.334 15.294 31.334a10.593 10.593 0 0 0 4.621-1.126 10.593 10.593 0 0 0 4.621 1.126c6.421.003 21.775-15.234 15.298-31.331zm-12.393-13.722c-2.189 1.864-4.855 3.26-6.344.788.658-3.05 3.605-2.255 6.344-.788zm5.624 35.955c-2.634 3.149-6.711 6.216-8.511 6.216a7.719 7.719 0 0 1-4.635-1.64 7.585 7.585 0 0 1-4.635 1.64c-1.884 0-6.009-3.224-8.511-6.216-9.6-11.481-6.5-31.284 9.9-26.606a10.067 10.067 0 0 0 3.932.56c2.076-.193 12.649-4.821 16.554 4.889 2.723 6.775 1.152 14.881-4.094 21.157z" fill="#fff"/></svg>