<svg xmlns="http://www.w3.org/2000/svg" viewBox="2758.301 999.267 38.592 47.727"><path data-name="Union 18" d="M2766.256 1046.994v-13.327h3.977v-4.975h2.984v-8.141h-2.658a6.775 6.775 0 0 1-5.3-2.562 10.361 10.361 0 0 1-6.958-9.773v-4.381h5.468v-4.568h27.655v4.568h5.468v4.381a10.365 10.365 0 0 1-6.95 9.772 6.783 6.783 0 0 1-5.307 2.562h-2.658v8.141h2.983v4.976h3.977v13.327zm2.8-2.8h17.09v-7.733h-17.09zm3.977-10.535h9.135v-2.171h-9.135zm2.984-4.971h3.169v-8.137h-3.169zm-9.447-14.929a4 4 0 0 0 3.993 3.992h14.078a4 4 0 0 0 3.99-3.992v-11.692h-22.061zm24.859 0c0 .072 0 .144-.006.216a7.54 7.54 0 0 0 2.678-5.762v-1.582h-2.672zm-30.328-5.543a7.534 7.534 0 0 0 2.678 5.762c0-.072-.006-.144-.006-.216v-7.131h-2.672zm10.533 33.511v-2.8h11.933v2.8z" fill="#fff"/></svg>