<svg xmlns="http://www.w3.org/2000/svg" viewBox="3172.53 1006.007 50.94 39.844"><path data-name="Union 12" d="M3177.506 1045.851a1.063 1.063 0 0 1-1.053-.911l-2.708-18.541a1.052 1.052 0 0 1 .249-.848 1.074 1.074 0 0 1 .805-.369h18.649v-2.71h-19a1.063 1.063 0 0 1-1.055-.925l-.853-6.441a1.085 1.085 0 0 1 .254-.843 1.079 1.079 0 0 1 .8-.361h11.5v-1.852a1.066 1.066 0 0 1 1.065-1.065h.91v-1.939a2.94 2.94 0 0 1 3.041-3.039h15.785a2.941 2.941 0 0 1 3.039 3.039v1.939h.91a1.065 1.065 0 0 1 1.063 1.065v1.852h11.5a1.075 1.075 0 0 1 .8.365 1.063 1.063 0 0 1 .249.848l-.919 6.44a1.064 1.064 0 0 1-1.054.915h-18.932v2.71h18.554a1.061 1.061 0 0 1 .809.375 1.052 1.052 0 0 1 .242.856l-2.952 18.541a1.059 1.059 0 0 1-1.047.9zm.922-2.127h38.822l1.149-7.213h-41.026zm39.971-7.213l1.465-9.2h-17.367v.5a1.062 1.062 0 0 1-1.065 1.062h-6.867a1.064 1.064 0 0 1-1.062-1.062v-.5h-17.473l1.346 9.2zm-22.766-9.766h4.739v-5.938h-4.739zm5.8-8.062a1.064 1.064 0 0 1 1.065 1.064v.6h18.07l.616-4.312h-46.374l.568 4.312h18.125v-.6a1.065 1.065 0 0 1 1.063-1.064zm2.489-8.728a1.065 1.065 0 0 1 1.065 1.065v2.882h3.791v-.789h-.911a1.064 1.064 0 0 1-1.064-1.062v-3a.813.813 0 0 0-.91-.911h-15.784a.814.814 0 0 0-.911.911v3a1.064 1.064 0 0 1-1.063 1.062h-.909v.789h3.791v-2.882a1.066 1.066 0 0 1 1.065-1.065zm-10.778 3.947h9.713v-1.819h-9.713z" fill="#fff"/></svg>