<svg xmlns="http://www.w3.org/2000/svg" viewBox="2543.731 1000.763 44.635 44.673"><path data-name="Union 19" d="M2545.309 1045.436a1.61 1.61 0 0 1-1.577-1.573v-41.524a1.559 1.559 0 0 1 1.577-1.576h41.482a1.558 1.558 0 0 1 1.576 1.576v41.524a1.558 1.558 0 0 1-1.576 1.576zm1.576-3.152h38.33v-17.609h-7.8a11.511 11.511 0 0 1-11.342 9.92 11.51 11.51 0 0 1-11.34-9.92h-7.843zm10.841-19.185a8.336 8.336 0 0 0 8.342 8.342 8.336 8.336 0 0 0 8.344-8.342 8.36 8.36 0 0 0-8.344-8.342 8.36 8.36 0 0 0-8.343 8.343zm19.685-1.576h7.8v-17.608h-27.489v11.3a11.467 11.467 0 0 1 8.342-3.615 11.513 11.513 0 0 1 11.346 9.924zm-30.525 0h7.689v-17.608h-7.689zm13.226 1.576a5.94 5.94 0 0 1 5.958-5.96 5.964 5.964 0 0 1 5.959 5.96 5.964 5.964 0 0 1-5.959 5.96 5.939 5.939 0 0 1-5.96-5.959zm3.114 0a2.839 2.839 0 0 0 2.844 2.846 2.84 2.84 0 0 0 2.846-2.846 2.838 2.838 0 0 0-2.846-2.844 2.837 2.837 0 0 0-2.846 2.845zm11.226-12.071a1.559 1.559 0 0 1-1.576-1.578 1.559 1.559 0 0 1 1.576-1.576h4.074a1.56 1.56 0 0 1 1.578 1.576 1.561 1.561 0 0 1-1.578 1.578z" fill="#fff"/></svg>