<svg xmlns="http://www.w3.org/2000/svg" viewBox="3001.805 360.226 33.195 36.801"><path d="M3031.796 373.044a1.218 1.218 0 0 0-1.645.369 1.132 1.132 0 0 0 .381 1.591 4.2 4.2 0 0 1 0 7.248l-19.585 11.807a4.491 4.491 0 0 1-4.48.11 4.2 4.2 0 0 1-2.274-3.734V366.82a4.2 4.2 0 0 1 2.274-3.734 4.491 4.491 0 0 1 4.48.11l11.4 6.874a1.219 1.219 0 0 0 1.645-.369 1.132 1.132 0 0 0-.382-1.591l-11.4-6.873a6.918 6.918 0 0 0-6.9-.17 6.467 6.467 0 0 0-3.5 5.753v23.615a6.467 6.467 0 0 0 3.5 5.753 6.918 6.918 0 0 0 6.9-.17l19.586-11.807a6.466 6.466 0 0 0 0-11.166z" fill="#fff"/></svg>